#!OML:ASF H:\BabyWalks\Project 1\Capture day 1\Session 1\baby.ASF
:FULLY-SPECIFIED
:DEGREES
716
root 39.7743 17.3629 0.432816 -82.1045 85.7186 -83.4166
lowerback 20.7821 1.78666 3.63377
upperback 6.60297 3.58594 1.34167
thorax -4.30126 1.95071 -1.49601
lowerneck 0.537084 5.38875 9.376
upperneck -3.07339 7.13028 -11.6341
head -0.217148 3.62501 -4.99576
rclavicle 1.89839e-014 -1.5704e-014
rhumerus -39.5114 11.2007 -82.6052
rradius 54.5419
rwrist -7.9531
rhand -12.2252 -19.4626
rfingers 7.12502
rthumb 13.84 -48.9822
lclavicle 1.89839e-014 -1.5704e-014
lhumerus -54.6626 -6.32112 79.5657
lradius 40.6239
lwrist -2.94728
lhand 14.3707 13.6236
lfingers 7.12502
lthumb 39.259 39.0689
rfemur -9.9795 9.42925 26.1439
rtibia 31.42
rfoot -18.5191 8.00744
rtoes 9.09587
lfemur -27.5198 -2.82893 -13.1873
ltibia 31.5337
lfoot -11.7853 -5.51009
ltoes 1.29737
717
root 39.8495 17.3332 0.424969 -79.2627 85.3451 -80.497
lowerback 20.8098 1.83874 3.68004
upperback 6.63433 3.6659 1.35656
thorax -4.2759 1.99158 -1.52506
lowerneck 0.731225 5.7 9.59717
upperneck -3.24184 7.55319 -11.8701
head -0.234416 3.84415 -5.10344
rclavicle -7.05686e-015 -9.54166e-015
rhumerus -39.3205 11.2137 -82.6398
rradius 54.6097
rwrist -7.91643
rhand -12.3254 -19.4511
rfingers 7.12502
rthumb 13.7434 -48.9772
lclavicle -7.05686e-015 -9.54166e-015
lhumerus -54.555 -6.67649 79.5777
lradius 40.9186
lwrist -2.79216
lhand 14.1466 13.4725
lfingers 7.12502
lthumb 39.0477 38.9788
rfemur -9.71382 9.73313 26.5851
rtibia 31.6286
rfoot -18.9274 7.87413
rtoes 8.89484
lfemur -27.5645 -2.59391 -12.9493
ltibia 31.9772
lfoot -10.9325 -5.88095
ltoes 1.80791
718
root 39.9213 17.3029 0.417898 -77.1761 84.942 -78.309
lowerback 20.8898 1.88039 3.75046
upperback 6.65978 3.74047 1.37191
thorax -4.28245 2.02931 -1.56883
lowerneck 1.00467 6.02105 9.8725
upperneck -3.50482 7.99033 -12.1661
head -0.28368 4.0742 -5.24252
rclavicle 3.13086e-014 8.34896e-015
rhumerus -39.1105 11.1197 -82.6664
rradius 54.594
rwrist -7.81701
rhand -12.4726 -19.4539
rfingers 7.12502
rthumb 13.6016 -48.9896
lclavicle 3.13086e-014 8.34896e-015
lhumerus -54.3447 -7.00349 79.5553
lradius 41.1359
lwrist -2.74399
lhand 13.8362 13.2714
lfingers 7.12502
lthumb 38.7551 38.8611
rfemur -9.45061 10.0351 27.064
rtibia 31.8837
rfoot -19.3184 7.72544
rtoes 8.75051
lfemur -27.6492 -2.3247 -12.6655
ltibia 32.6752
lfoot -10.4877 -6.2745
ltoes 2.16398
719
root 39.9895 17.2792 0.412442 -75.653 84.5633 -76.6779
lowerback 21.0108 1.92055 3.79924
upperback 6.67813 3.81025 1.37325
thorax -4.31814 2.06389 -1.61669
lowerneck 1.33127 6.35179 10.183
upperneck -3.83396 8.44175 -12.4961
head -0.353459 4.31416 -5.40108
rclavicle 6.35614e-014 1.45113e-014
rhumerus -38.8809 10.8955 -82.6842
rradius 54.4921
rwrist -7.64854
rhand -12.6828 -19.4682
rfingers 7.12502
rthumb 13.399 -49.0173
lclavicle 6.35614e-014 1.45113e-014
lhumerus -54.0145 -7.31482 79.4961
lradius 41.2619
lwrist -2.79922
lhand 13.421 13.0208
lfingers 7.12502
lthumb 38.3633 38.7202
rfemur -9.20996 10.3238 27.5248
rtibia 32.1906
rfoot -19.7045 7.5561
rtoes 8.59664
lfemur -27.7745 -2.0525 -12.3786
ltibia 33.5718
lfoot -10.4423 -6.63145
ltoes 2.3691
720
root 40.0554 17.2474 0.408454 -74.6053 84.2332 -75.5258
lowerback 21.145 1.96115 3.81438
upperback 6.70039 3.87362 1.35603
thorax -4.35746 2.09546 -1.66466
lowerneck 1.64824 6.69934 10.4912
upperneck -4.17401 8.91573 -12.8151
head -0.41972 4.56553 -5.55569
rclavicle 9.64106e-015 1.07344e-014
rhumerus -38.6243 10.5366 -82.6893
rradius 54.3053
rwrist -7.41374
rhand -12.9679 -19.5043
rfingers 7.12502
rthumb 13.1241 -49.0713
lclavicle 9.64106e-015 1.07344e-014
lhumerus -53.5314 -7.61582 79.3954
lradius 41.2837
lwrist -2.94996
lhand 12.9096 12.7195
lfingers 7.12502
lthumb 37.8805 38.5512
rfemur -9.02807 10.5794 27.9431
rtibia 32.5918
rfoot -20.1037 7.37873
rtoes 8.42159
lfemur -27.9777 -1.80153 -12.1054
ltibia 34.6316
lfoot -10.7211 -6.93588
ltoes 2.48938
721
root 40.1197 17.2163 0.406583 -73.9787 83.9766 -74.811
lowerback 21.2714 2.00581 3.77844
upperback 6.72508 3.93011 1.31915
thorax -4.39234 2.12378 -1.70295
lowerneck 1.92455 7.05952 10.768
upperneck -4.47474 9.40689 -13.0942
head -0.466274 4.82387 -5.69018
rclavicle -2.31211e-014 -1.41634e-014
rhumerus -38.3584 10.0489 -82.677
rradius 54.0442
rwrist -7.11098
rhand -13.3362 -19.5699
rfingers 7.12502
rthumb 12.7691 -49.1594
lclavicle -2.31211e-014 -1.41634e-014
lhumerus -52.893 -7.91252 79.2523
lradius 41.2058
lwrist -3.19618
lhand 12.3081 12.3689
lfingers 7.12502
lthumb 37.3121 38.352
rfemur -8.90704 10.7763 28.2936
rtibia 33.0737
rfoot -20.5189 7.18954
rtoes 8.15429
lfemur -28.2256 -1.58006 -11.8725
ltibia 35.7527
lfoot -11.2361 -7.20292
ltoes 2.57017
722
root 40.1833 17.1862 0.406743 -73.7088 83.8064 -74.4777
lowerback 21.3624 2.05712 3.68484
upperback 6.75129 3.97996 1.26478
thorax -4.41041 2.14909 -1.72406
lowerneck 2.14498 7.42945 10.9743
upperneck -4.69493 9.91178 -13.2924
head -0.483876 5.08602 -5.78366
rclavicle 4.09559e-014 3.00041e-015
rhumerus -38.1078 9.45935 -82.6475
rradius 53.719
rwrist -6.75653
rhand -13.8086 -19.6721
rfingers 7.12502
rthumb 12.3136 -49.2895
lclavicle 4.09559e-014 3.00041e-015
lhumerus -52.1121 -8.19751 79.0658
lradius 41.0471
lwrist -3.54295
lhand 11.6261 11.9847
lfingers 7.12502
lthumb 36.667 38.1345
rfemur -8.85839 10.8902 28.5597
rtibia 33.6484
rfoot -20.9676 6.99478
rtoes 7.73716
lfemur -28.5125 -1.39518 -11.6989
ltibia 36.8838
lfoot -11.8823 -7.44146
ltoes 2.44333
723
root 40.2468 17.1579 0.408603 -73.8343 83.7215 -74.5668
lowerback 21.4134 2.11047 3.54864
upperback 6.77997 4.02015 1.19181
thorax -4.40741 2.17012 -1.73656
lowerneck 2.29917 7.80223 11.1191
upperneck -4.82717 10.4203 -13.4176
head -0.470181 5.34643 -5.8389
rclavicle 6.93262e-015 5.36719e-015
rhumerus -37.8815 8.79382 -82.6092
rradius 53.3412
rwrist -6.35995
rhand -14.3969 -19.8192
rfingers 7.12502
rthumb 11.7464 -49.4699
lclavicle 6.93262e-015 5.36719e-015
lhumerus -51.1967 -8.46651 78.827
lradius 40.8401
lwrist -3.98897
lhand 10.8665 11.5818
lfingers 7.12502
lthumb 35.9477 37.9111
rfemur -8.85144 10.907 28.7417
rtibia 34.2431
rfoot -21.4145 6.79925
rtoes 7.18751
lfemur -28.7982 -1.24853 -11.5938
ltibia 37.923
lfoot -12.5006 -7.69997
ltoes 2.38557
724
root 40.3108 17.1328 0.411677 -74.429 83.7019 -75.1508
lowerback 21.4145 2.15934 3.39524
upperback 6.80987 4.04777 1.10848
thorax -4.37865 2.18555 -1.74463
lowerneck 2.39897 8.17431 11.2045
upperneck -4.86597 10.9285 -13.4816
head -0.426295 5.60353 -5.85991
rclavicle -2.88238e-014 9.93923e-015
rhumerus -37.6918 8.09478 -82.5696
rradius 52.9193
rwrist -5.92806
rhand -15.1036 -20.0207
rfingers 7.12502
rthumb 11.0648 -49.709
lclavicle -2.88238e-014 9.93923e-015
lhumerus -50.1741 -8.70339 78.5336
lradius 40.6308
lwrist -4.51868
lhand 10.0471 11.1874
lfingers 7.12502
lthumb 35.171 37.7033
rfemur -8.86588 10.813 28.8593
rtibia 34.8167
rfoot -21.8375 6.61649
rtoes 6.51834
lfemur -29.066 -1.12913 -11.5473
ltibia 38.8308
lfoot -13.0506 -8.0789
ltoes 2.50425
725
root 40.3751 17.1119 0.415074 -75.5758 83.7311 -76.3033
lowerback 21.3763 2.19654 3.25357
upperback 6.8422 4.06068 1.01677
thorax -4.32645 2.19448 -1.76239
lowerneck 2.45102 8.54033 11.2438
upperneck -4.82426 11.4287 -13.5066
head -0.356756 5.85413 -5.85618
rclavicle -3.03147e-015 1.08338e-014
rhumerus -37.5401 7.39791 -82.5384
rradius 52.4621
rwrist -5.47157
rhand -15.9128 -20.2842
rfingers 7.12502
rthumb 10.2843 -50.0127
lclavicle -3.03147e-015 1.08338e-014
lhumerus -49.0717 -8.89947 78.1895
lradius 40.4729
lwrist -5.10817
lhand 9.13969 10.8044
lfingers 7.12502
lthumb 34.3099 37.5189
rfemur -8.87405 10.6024 28.9261
rtibia 35.3306
rfoot -22.2171 6.46767
rtoes 5.80236
lfemur -29.2886 -1.01899 -11.5576
ltibia 39.5893
lfoot -13.5438 -8.44154
ltoes 2.53129
726
root 40.439 17.0956 0.418112 -77.3391 83.775 -78.0773
lowerback 21.3236 2.21693 3.16237
upperback 6.87331 4.06201 0.921898
thorax -4.26494 2.19827 -1.80831
lowerneck 2.47719 8.89278 11.2559
upperneck -4.72976 11.9111 -13.5165
head -0.272316 6.09452 -5.8401
rclavicle 6.4605e-015 -8.94531e-015
rhumerus -37.4296 6.7206 -82.5241
rradius 51.9743
rwrist -4.98632
rhand -16.7854 -20.6112
rfingers 7.12502
rthumb 9.44239 -50.3797
lclavicle 6.4605e-015 -8.94531e-015
lhumerus -47.9228 -9.05219 77.8059
lradius 40.4236
lwrist -5.70133
lhand 8.17984 10.4928
lfingers 7.12502
lthumb 33.398 37.4082
rfemur -8.84722 10.2821 28.9754
rtibia 35.7516
rfoot -22.5364 6.36066
rtoes 5.06925
lfemur -29.4523 -0.91942 -11.5935
ltibia 40.2002
lfoot -13.971 -8.81716
ltoes 2.5961
727
root 40.5019 17.0842 0.419884 -79.6699 83.8123 -80.4153
lowerback 21.2746 2.21584 3.14181
upperback 6.9001 4.05037 0.821785
thorax -4.20526 2.19609 -1.89684
lowerneck 2.51404 9.22951 11.2738
upperneck -4.62573 12.3737 -13.552
head -0.187113 6.32573 -5.83238
rclavicle 4.18442e-014 4.96962e-015
rhumerus -37.3553 6.08989 -82.5429
rradius 51.4594
rwrist -4.46778
rhand -17.688 -20.9909
rfingers 7.12502
rthumb 8.57147 -50.7969
lclavicle 4.18442e-014 4.96962e-015
lhumerus -46.763 -9.1664 77.3979
lradius 40.5287
lwrist -6.242
lhand 7.13548 10.2589
lfingers 7.12502
lthumb 32.4046 37.3829
rfemur -8.77252 9.87245 29.0193
rtibia 36.0657
rfoot -22.7785 6.31593
rtoes 4.39962
lfemur -29.551 -0.826192 -11.6421
ltibia 40.6714
lfoot -14.3356 -9.19768
ltoes 2.67674
728
root 40.5633 17.0777 0.419797 -82.4693 83.8276 -83.2129
lowerback 21.2419 2.19602 3.20808
upperback 6.92345 4.03308 0.715838
thorax -4.15135 2.1917 -2.04019
lowerneck 2.55373 9.54506 11.3009
upperneck -4.52291 12.8082 -13.6222
head -0.102906 6.54364 -5.83669
rclavicle -1.19271e-015 -2.52457e-014
rhumerus -37.3113 5.51413 -82.5932
rradius 50.9257
rwrist -3.91856
rhand -18.5679 -21.4089
rfingers 7.12502
rthumb 7.72226 -51.2479
lclavicle -1.19271e-015 -2.52457e-014
lhumerus -45.6153 -9.26383 76.9944
lradius 40.8188
lwrist -6.68263
lhand 5.98398 10.091
lfingers 7.12502
lthumb 31.3081 37.4333
rfemur -8.64081 9.39502 29.0634
rtibia 36.2705
rfoot -22.9423 6.34516
rtoes 3.82781
lfemur -29.5827 -0.741447 -11.6922
ltibia 41.0124
lfoot -14.6375 -9.57372
ltoes 2.76987
